<svg width="214" height="214" viewBox="0 0 214 214" fill="none" xmlns="http://www.w3.org/2000/svg">
<path d="M107 214C166.094 214 214 166.094 214 107C214 47.9055 166.094 0 107 0C47.9055 0 0 47.9055 0 107C0 166.094 47.9055 214 107 214Z" fill="black" fill-opacity="0.1"/>
<path d="M107 213.5C165.818 213.5 213.5 165.818 213.5 107C213.5 48.1817 165.818 0.5 107 0.5C48.1817 0.5 0.5 48.1817 0.5 107C0.5 165.818 48.1817 213.5 107 213.5Z" stroke="#F8F8F8"/>
<path d="M42.2118 101C43.6785 101.08 44.7918 101.48 45.5518 102.2C46.3252 102.907 46.7118 103.833 46.7118 104.98C46.7118 105.78 46.5185 106.493 46.1318 107.12C45.7452 107.733 45.1718 108.22 44.4118 108.58C43.6518 108.94 42.7252 109.12 41.6318 109.12C40.6185 109.12 39.6585 108.96 38.7518 108.64C37.8585 108.307 37.1385 107.867 36.5918 107.32L37.2918 106.18C37.7585 106.66 38.3785 107.053 39.1518 107.36C39.9252 107.653 40.7518 107.8 41.6318 107.8C42.7785 107.8 43.6652 107.553 44.2918 107.06C44.9185 106.553 45.2318 105.86 45.2318 104.98C45.2318 104.113 44.9185 103.433 44.2918 102.94C43.6652 102.447 42.7185 102.2 41.4518 102.2H40.4518V101.14L44.3318 96.28H37.1718V95H46.1718V96.02L42.2118 101ZM52.7209 95V109H51.2809V96.28H47.9809V95H52.7209ZM60.0475 95V109H58.6075V96.28H55.3075V95H60.0475ZM81.5684 98.48V109H80.2684V100.68L76.0084 107.72H75.3684L71.1084 100.66V109H69.8084V98.48H71.2484L75.7084 106.06L80.2484 98.48H81.5684Z" fill="#F8F8F8"/>
<path d="M147.228 95V109H145.808V97.8L140.308 107.22H139.607L134.107 97.86V109H132.688V95H133.908L139.988 105.38L146.008 95H147.228ZM156.045 109.1C155.032 109.1 154.119 108.873 153.305 108.42C152.492 107.953 151.852 107.313 151.385 106.5C150.919 105.687 150.685 104.767 150.685 103.74C150.685 102.713 150.919 101.793 151.385 100.98C151.852 100.167 152.492 99.5333 153.305 99.08C154.119 98.6267 155.032 98.4 156.045 98.4C157.059 98.4 157.972 98.6267 158.785 99.08C159.599 99.5333 160.232 100.167 160.685 100.98C161.152 101.793 161.385 102.713 161.385 103.74C161.385 104.767 161.152 105.687 160.685 106.5C160.232 107.313 159.599 107.953 158.785 108.42C157.972 108.873 157.059 109.1 156.045 109.1ZM156.045 107.84C156.792 107.84 157.459 107.673 158.045 107.34C158.645 106.993 159.112 106.507 159.445 105.88C159.779 105.253 159.945 104.54 159.945 103.74C159.945 102.94 159.779 102.227 159.445 101.6C159.112 100.973 158.645 100.493 158.045 100.16C157.459 99.8133 156.792 99.64 156.045 99.64C155.299 99.64 154.625 99.8133 154.025 100.16C153.439 100.493 152.971 100.973 152.624 101.6C152.291 102.227 152.124 102.94 152.124 103.74C152.124 104.54 152.291 105.253 152.624 105.88C152.971 106.507 153.439 106.993 154.025 107.34C154.625 107.673 155.299 107.84 156.045 107.84ZM169.939 98.4C170.926 98.4 171.82 98.6267 172.62 99.08C173.42 99.52 174.046 100.147 174.499 100.96C174.953 101.773 175.18 102.7 175.18 103.74C175.18 104.793 174.953 105.727 174.499 106.54C174.046 107.353 173.42 107.987 172.62 108.44C171.834 108.88 170.939 109.1 169.939 109.1C169.086 109.1 168.314 108.927 167.62 108.58C166.94 108.22 166.379 107.7 165.939 107.02V112.88H164.52V98.48H165.88V100.56C166.307 99.8667 166.867 99.3333 167.56 98.96C168.267 98.5867 169.059 98.4 169.939 98.4ZM169.84 107.84C170.574 107.84 171.24 107.673 171.84 107.34C172.44 106.993 172.907 106.507 173.24 105.88C173.587 105.253 173.76 104.54 173.76 103.74C173.76 102.94 173.587 102.233 173.24 101.62C172.907 100.993 172.44 100.507 171.84 100.16C171.24 99.8133 170.574 99.64 169.84 99.64C169.094 99.64 168.42 99.8133 167.82 100.16C167.234 100.507 166.767 100.993 166.42 101.62C166.087 102.233 165.92 102.94 165.92 103.74C165.92 104.54 166.087 105.253 166.42 105.88C166.767 106.507 167.234 106.993 167.82 107.34C168.42 107.673 169.094 107.84 169.84 107.84ZM187.531 104.18H178.73C178.81 105.273 179.231 106.16 179.991 106.84C180.751 107.507 181.71 107.84 182.87 107.84C183.523 107.84 184.124 107.727 184.671 107.5C185.218 107.26 185.69 106.913 186.09 106.46L186.891 107.38C186.424 107.94 185.838 108.367 185.131 108.66C184.438 108.953 183.671 109.1 182.831 109.1C181.751 109.1 180.791 108.873 179.951 108.42C179.124 107.953 178.477 107.313 178.01 106.5C177.543 105.687 177.311 104.767 177.311 103.74C177.311 102.713 177.531 101.793 177.971 100.98C178.424 100.167 179.038 99.5333 179.811 99.08C180.598 98.6267 181.478 98.4 182.451 98.4C183.424 98.4 184.298 98.6267 185.071 99.08C185.844 99.5333 186.451 100.167 186.891 100.98C187.331 101.78 187.551 102.7 187.551 103.74L187.531 104.18ZM182.451 99.62C181.438 99.62 180.584 99.9467 179.891 100.6C179.211 101.24 178.823 102.08 178.73 103.12H186.191C186.098 102.08 185.703 101.24 185.01 100.6C184.33 99.9467 183.478 99.62 182.451 99.62Z" fill="#F8F8F8"/>
<path d="M105.5 175.5L88 158M105.5 34V175.5V34ZM105.5 34L123 51.5L105.5 34ZM105.5 34L88 51.5L105.5 34ZM105.5 175.5L123 158L105.5 175.5Z" stroke="#F8F8F8"/>
</svg>
