<svg width="1512" height="357" viewBox="0 0 1512 357" fill="none" xmlns="http://www.w3.org/2000/svg">
<g clip-path="url(#clip0_0_3)">
<path d="M968.5 287V334M752 356.5V287V356.5ZM752 287H855.5H752ZM752 287H640H752ZM1243 287H1134.5H1098H1243ZM1243 287L1231.5 42.5L1243 287ZM1243 287L1565.5 330L1243 287ZM1098 287H996.5H968.5H1098ZM1098 287V96V287ZM855.5 287V60V287ZM855.5 287H968.5H855.5ZM640 287V60V287ZM640 287L509 271.5L640 287ZM509 271.5V338.5V271.5ZM509 271.5L383.5 217.573L509 271.5ZM-121 147.5L97.5 112.908L122.789 108.904C126.52 108.313 130.342 108.791 133.812 110.283L242 156.771L-121 147.5ZM383.5 217.573L411.179 59.064C412.029 54.1946 414.653 49.8126 418.543 46.7633L468 8L383.5 217.573ZM383.5 217.573L242 156.771L383.5 217.573ZM242 156.771L259.5 8L242 156.771Z" stroke="#797886" stroke-width="20"/>
<g clip-path="url(#clip1_0_3)">
<path d="M192.67 102.903L212.952 110.038L208.824 114.012L194.493 108.971L192.67 102.903Z" fill="white"/>
<path d="M197.662 88.7113L208.416 90.5348L202.575 107.141L191.82 105.318L197.662 88.7113Z" fill="#B5B5B5"/>
<path d="M217.944 95.8456L208.416 90.5348L202.575 107.141L212.102 112.452L217.944 95.8456Z" fill="#DADADA"/>
</g>
<path d="M169 195.887H190.5L187.925 201.006H172.734L169 195.887Z" fill="white"/>
<path d="M169 180.843L179.75 178.994V196.598L169 198.447V180.843Z" fill="#B5B5B5"/>
<path d="M190.5 180.843L179.75 178.994V196.598L190.5 198.447V180.843Z" fill="#DADADA"/>
<g clip-path="url(#clip2_0_3)">
<path d="M287.884 131.305L288.255 109.808L293.329 112.471L293.067 127.66L287.884 131.305Z" fill="white"/>
<path d="M272.842 131.046L271.179 120.265L288.781 120.569L290.443 131.349L272.842 131.046Z" fill="#B5B5B5"/>
<path d="M273.213 109.549L271.179 120.265L288.781 120.569L290.814 109.852L273.213 109.549Z" fill="#DADADA"/>
</g>
<g clip-path="url(#clip3_0_3)">
<path d="M477.534 24.9538L497.59 32.7003L493.343 36.5477L479.172 31.0742L477.534 24.9538Z" fill="white"/>
<path d="M482.954 10.9198L493.648 13.0688L487.305 29.4904L476.611 27.3414L482.954 10.9198Z" fill="#B5B5B5"/>
<path d="M503.01 18.6663L493.648 13.0688L487.305 29.4904L496.667 35.0879L503.01 18.6663Z" fill="#DADADA"/>
</g>
<path d="M274.556 217.953L296.133 228.688L290.993 232.54L275.747 224.955L274.556 217.953Z" fill="white"/>
<path d="M282.068 202.855L293.779 206.367L284.989 224.035L273.278 220.522L282.068 202.855Z" fill="#B5B5B5"/>
<path d="M303.645 213.59L293.779 206.367L284.99 224.034L294.855 231.257L303.645 213.59Z" fill="#DADADA"/>
<path d="M322.556 234.953L344.133 245.688L338.993 249.54L323.747 241.955L322.556 234.953Z" fill="white"/>
<path d="M330.068 219.855L341.779 223.367L332.989 241.035L321.278 237.522L330.068 219.855Z" fill="#B5B5B5"/>
<path d="M351.645 230.59L341.779 223.367L332.99 241.034L342.855 248.257L351.645 230.59Z" fill="#DADADA"/>
<path d="M368.556 253.953L390.133 264.688L384.993 268.54L369.747 260.955L368.556 253.953Z" fill="white"/>
<path d="M376.068 238.855L387.779 242.367L378.989 260.035L367.278 256.522L376.068 238.855Z" fill="#B5B5B5"/>
<path d="M397.645 249.59L387.779 242.367L378.99 260.034L388.855 267.257L397.645 249.59Z" fill="#DADADA"/>
<path d="M539 308.733H559.023L556.625 313.5H542.477L539 308.733Z" fill="white"/>
<path d="M539 294.721L549.012 293V309.395L539 311.116V294.721Z" fill="#B5B5B5"/>
<path d="M559.023 294.721L549.012 293V309.395L559.023 311.116V294.721Z" fill="#DADADA"/>
<path d="M660 184.733H680.023L677.625 189.5H663.477L660 184.733Z" fill="white"/>
<path d="M660 170.721L670.012 169V185.395L660 187.116V170.721Z" fill="#B5B5B5"/>
<path d="M680.023 170.721L670.012 169V185.395L680.023 187.116V170.721Z" fill="#DADADA"/>
<path d="M816 251.733H836.023L833.625 256.5H819.477L816 251.733Z" fill="white"/>
<path d="M816 237.721L826.012 236V252.395L816 254.116V237.721Z" fill="#B5B5B5"/>
<path d="M836.023 237.721L826.012 236V252.395L836.023 254.116V237.721Z" fill="#DADADA"/>
<path d="M877 216.733H897.023L894.625 221.5H880.477L877 216.733Z" fill="white"/>
<path d="M877 202.721L887.012 201V217.395L877 219.116V202.721Z" fill="#B5B5B5"/>
<path d="M897.023 202.721L887.012 201V217.395L897.023 219.116V202.721Z" fill="#DADADA"/>
<path d="M767 317.733H787.023L784.625 322.5H770.477L767 317.733Z" fill="white"/>
<path d="M767 303.721L777.012 302V318.395L767 320.116V303.721Z" fill="#B5B5B5"/>
<path d="M787.023 303.721L777.012 302V318.395L787.023 320.116V303.721Z" fill="#DADADA"/>
<path d="M583 97.7326H603.023L600.625 102.5H586.477L583 97.7326Z" fill="white"/>
<path d="M583 83.7215L593.012 82V98.3948L583 100.116V83.7215Z" fill="#B5B5B5"/>
<path d="M603.023 83.7215L593.012 82V98.3948L603.023 100.116V83.7215Z" fill="#DADADA"/>
<path d="M583 184.733H603.023L600.625 189.5H586.477L583 184.733Z" fill="white"/>
<path d="M583 170.721L593.012 169V185.395L583 187.116V170.721Z" fill="#B5B5B5"/>
<path d="M603.023 170.721L593.012 169V185.395L603.023 187.116V170.721Z" fill="#DADADA"/>
<path d="M583 141.733H603.023L600.625 146.5H586.477L583 141.733Z" fill="white"/>
<path d="M583 127.721L593.012 126V142.395L583 144.116V127.721Z" fill="#B5B5B5"/>
<path d="M603.023 127.721L593.012 126V142.395L603.023 144.116V127.721Z" fill="#DADADA"/>
<path d="M583 141.733H603.023L600.625 146.5H586.477L583 141.733Z" fill="white"/>
<path d="M583 127.721L593.012 126V142.395L583 144.116V127.721Z" fill="#B5B5B5"/>
<path d="M603.023 127.721L593.012 126V142.395L603.023 144.116V127.721Z" fill="#DADADA"/>
<path d="M658.678 102.606L677.258 110.069L673.256 113.599L660.127 108.326L658.678 102.606Z" fill="white"/>
<path d="M663.901 89.6042L673.832 91.7387L667.721 106.952L657.789 104.817L663.901 89.6042Z" fill="#B5B5B5"/>
<path d="M682.481 97.068L673.832 91.7387L667.721 106.952L676.37 112.281L682.481 97.068Z" fill="#DADADA"/>
<path d="M660 106.733H680.023L677.625 111.5H663.477L660 106.733Z" fill="white"/>
<path d="M660 92.7215L670.012 91V107.395L660 109.116V92.7215Z" fill="#B5B5B5"/>
<path d="M680.023 92.7215L670.012 91V107.395L680.023 109.116V92.7215Z" fill="#DADADA"/>
<path d="M893.494 114.262V94.2384L898.262 96.6364V110.785L893.494 114.262Z" fill="white"/>
<path d="M879.483 114.262L877.762 104.25H894.156L895.878 114.262H879.483Z" fill="#B5B5B5"/>
<path d="M879.483 94.2384L877.762 104.25H894.156L895.878 94.2384H879.483Z" fill="#DADADA"/>
<path d="M1134.73 187.023V167L1139.5 169.398V183.546L1134.73 187.023Z" fill="white"/>
<path d="M1120.72 187.023L1119 177.012H1135.39L1137.12 187.023H1120.72Z" fill="#B5B5B5"/>
<path d="M1120.72 167L1119 177.012H1135.39L1137.12 167H1120.72Z" fill="#DADADA"/>
<path d="M1091 321.721H1115.3L1112.39 328H1095.22L1091 321.721Z" fill="white"/>
<path d="M1091 303.267L1103.15 301V322.593L1091 324.861V303.267Z" fill="#B5B5B5"/>
<path d="M1115.3 303.267L1103.15 301V322.593L1115.3 324.861V303.267Z" fill="#DADADA"/>
<path d="M1137.73 144.023V124L1142.5 126.398V140.546L1137.73 144.023Z" fill="white"/>
<path d="M1123.72 144.023L1122 134.012H1138.39L1140.12 144.023H1123.72Z" fill="#B5B5B5"/>
<path d="M1123.72 124L1122 134.012H1138.39L1140.12 124H1123.72Z" fill="#DADADA"/>
<path d="M823.733 142.023V122L828.5 124.398V138.546L823.733 142.023Z" fill="white"/>
<path d="M809.721 142.023L808 132.012H824.395L826.116 142.023H809.721Z" fill="#B5B5B5"/>
<path d="M809.721 122L808 132.012H824.395L826.116 122H809.721Z" fill="#DADADA"/>
</g>
<defs>
<clipPath id="clip0_0_3">
<rect width="1512" height="357" fill="white"/>
</clipPath>
<clipPath id="clip1_0_3">
<rect width="22" height="24" fill="white" transform="translate(198.605 86.0298) rotate(19.3799)"/>
</clipPath>
<clipPath id="clip2_0_3">
<rect width="22" height="24" fill="white" transform="translate(270 130.997) rotate(-89.0121)"/>
</clipPath>
<clipPath id="clip3_0_3">
<rect width="22" height="24" fill="white" transform="translate(483.978 8.26817) rotate(21.1186)"/>
</clipPath>
</defs>
</svg>
